<mxfile host="app.diagrams.net" agent="Mozilla/5.0 (Macintosh; Intel Mac OS X 10_15_7) AppleWebKit/537.36 (KHTML, like Gecko) Chrome/133.0.0.0 Safari/537.36" version="26.0.16">
  <diagram name="Page-1" id="iqPSVVqtBokqhcwBR_CY">
    <mxGraphModel dx="1434" dy="795" grid="0" gridSize="10" guides="1" tooltips="1" connect="1" arrows="1" fold="1" page="1" pageScale="1" pageWidth="850" pageHeight="1100" background="none" math="0" shadow="0">
      <root>
        <mxCell id="0" />
        <mxCell id="1" parent="0" />
        <mxCell id="EK_gnBU_sG1Yhc5XpYXd-26" value="" style="rounded=0;whiteSpace=wrap;html=1;strokeColor=none;" parent="1" vertex="1">
          <mxGeometry x="49" y="108" width="798" height="653" as="geometry" />
        </mxCell>
        <mxCell id="MyfAIEl0TEhj5KPefulC-85" value="Reasoning&lt;div&gt;Loop&lt;/div&gt;" style="rounded=1;whiteSpace=wrap;html=1;" parent="1" vertex="1">
          <mxGeometry x="411.25" y="322" width="91.5" height="50" as="geometry" />
        </mxCell>
        <mxCell id="MyfAIEl0TEhj5KPefulC-32" value="" style="rounded=0;whiteSpace=wrap;html=1;" parent="1" vertex="1">
          <mxGeometry x="374.5" y="532" width="120" height="60" as="geometry" />
        </mxCell>
        <mxCell id="A-LOzwlHvo55EF8Y7pXs-4" value="&lt;font style=&quot;font-size: 12px;&quot;&gt;output&lt;/font&gt;" style="strokeWidth=2;outlineConnect=0;dashed=0;align=center;html=1;fontSize=8;shape=mxgraph.eip.channel_adapter;fillColor=#9ddbef;" parent="1" vertex="1">
          <mxGeometry x="787" y="579" width="50" height="110" as="geometry" />
        </mxCell>
        <mxCell id="MyfAIEl0TEhj5KPefulC-11" value="" style="endArrow=classic;html=1;rounded=0;entryX=0.5;entryY=1;entryDx=0;entryDy=0;strokeWidth=2;" parent="1" target="MyfAIEl0TEhj5KPefulC-12" edge="1">
          <mxGeometry width="50" height="50" relative="1" as="geometry">
            <mxPoint x="277" y="432" as="sourcePoint" />
            <mxPoint x="377" y="352" as="targetPoint" />
            <Array as="points">
              <mxPoint x="352" y="432" />
              <mxPoint x="352" y="362" />
            </Array>
          </mxGeometry>
        </mxCell>
        <mxCell id="MyfAIEl0TEhj5KPefulC-50" value="" style="rounded=0;whiteSpace=wrap;html=1;" parent="1" vertex="1">
          <mxGeometry x="394.5" y="552" width="120" height="60" as="geometry" />
        </mxCell>
        <mxCell id="MyfAIEl0TEhj5KPefulC-52" value="" style="rounded=0;whiteSpace=wrap;html=1;fillColor=#6a00ff;strokeColor=#3700CC;fontColor=#ffffff;" parent="1" vertex="1">
          <mxGeometry x="414.5" y="572" width="120" height="60" as="geometry" />
        </mxCell>
        <mxCell id="MyfAIEl0TEhj5KPefulC-53" value="" style="endArrow=classic;html=1;rounded=0;dashed=1;strokeWidth=2;" parent="1" edge="1">
          <mxGeometry width="50" height="50" relative="1" as="geometry">
            <mxPoint x="446" y="632" as="sourcePoint" />
            <mxPoint x="786" y="680" as="targetPoint" />
            <Array as="points">
              <mxPoint x="446" y="680" />
            </Array>
          </mxGeometry>
        </mxCell>
        <mxCell id="MyfAIEl0TEhj5KPefulC-61" value="lookup agents" style="edgeLabel;html=1;align=center;verticalAlign=middle;resizable=0;points=[];" parent="MyfAIEl0TEhj5KPefulC-53" vertex="1" connectable="0">
          <mxGeometry x="-0.057" y="1" relative="1" as="geometry">
            <mxPoint as="offset" />
          </mxGeometry>
        </mxCell>
        <mxCell id="MyfAIEl0TEhj5KPefulC-54" value="" style="endArrow=classic;html=1;rounded=0;endSize=6;targetPerimeterSpacing=0;sourcePerimeterSpacing=0;jumpStyle=none;strokeColor=#6600CC;strokeWidth=2;" parent="1" edge="1">
          <mxGeometry width="50" height="50" relative="1" as="geometry">
            <mxPoint x="470" y="632" as="sourcePoint" />
            <mxPoint x="786" y="650" as="targetPoint" />
            <Array as="points">
              <mxPoint x="470" y="650" />
            </Array>
          </mxGeometry>
        </mxCell>
        <mxCell id="MyfAIEl0TEhj5KPefulC-60" value="send message to new agent" style="edgeLabel;html=1;align=center;verticalAlign=middle;resizable=0;points=[];" parent="MyfAIEl0TEhj5KPefulC-54" vertex="1" connectable="0">
          <mxGeometry x="-0.1094" y="1" relative="1" as="geometry">
            <mxPoint as="offset" />
          </mxGeometry>
        </mxCell>
        <mxCell id="MyfAIEl0TEhj5KPefulC-55" value="&lt;font style=&quot;color: rgb(255, 255, 255);&quot;&gt;send message&lt;/font&gt;" style="text;html=1;align=center;verticalAlign=middle;whiteSpace=wrap;rounded=0;" parent="1" vertex="1">
          <mxGeometry x="412.5" y="566" width="90" height="30" as="geometry" />
        </mxCell>
        <mxCell id="MyfAIEl0TEhj5KPefulC-56" value="lookup agent" style="text;html=1;align=center;verticalAlign=middle;whiteSpace=wrap;rounded=0;" parent="1" vertex="1">
          <mxGeometry x="396.5" y="547" width="72.5" height="30" as="geometry" />
        </mxCell>
        <mxCell id="MyfAIEl0TEhj5KPefulC-57" value="" style="endArrow=classic;html=1;rounded=0;exitX=1;exitY=0.5;exitDx=0;exitDy=0;strokeWidth=2;" parent="1" source="MyfAIEl0TEhj5KPefulC-86" edge="1">
          <mxGeometry width="50" height="50" relative="1" as="geometry">
            <mxPoint x="607" y="457" as="sourcePoint" />
            <mxPoint x="786" y="590" as="targetPoint" />
            <Array as="points">
              <mxPoint x="670" y="457" />
              <mxPoint x="670" y="590" />
            </Array>
          </mxGeometry>
        </mxCell>
        <mxCell id="MyfAIEl0TEhj5KPefulC-58" value="Stop" style="edgeLabel;html=1;align=center;verticalAlign=middle;resizable=0;points=[];" parent="MyfAIEl0TEhj5KPefulC-57" vertex="1" connectable="0">
          <mxGeometry x="-0.8272" relative="1" as="geometry">
            <mxPoint as="offset" />
          </mxGeometry>
        </mxCell>
        <mxCell id="MyfAIEl0TEhj5KPefulC-59" value="Final Response" style="edgeLabel;html=1;align=center;verticalAlign=middle;resizable=0;points=[];" parent="MyfAIEl0TEhj5KPefulC-57" vertex="1" connectable="0">
          <mxGeometry x="0.5223" y="-1" relative="1" as="geometry">
            <mxPoint x="13" as="offset" />
          </mxGeometry>
        </mxCell>
        <mxCell id="MyfAIEl0TEhj5KPefulC-62" value="" style="endArrow=baseDash;html=1;rounded=0;endFill=0;strokeWidth=2;strokeColor=#6600CC;" parent="1" edge="1">
          <mxGeometry width="50" height="50" relative="1" as="geometry">
            <mxPoint x="787" y="250" as="sourcePoint" />
            <mxPoint x="676" y="550" as="targetPoint" />
            <Array as="points">
              <mxPoint x="760" y="250" />
              <mxPoint x="760" y="550" />
            </Array>
          </mxGeometry>
        </mxCell>
        <mxCell id="MyfAIEl0TEhj5KPefulC-63" value="&lt;font style=&quot;font-size: 12px;&quot;&gt;input&lt;/font&gt;" style="strokeWidth=2;outlineConnect=0;dashed=0;align=center;html=1;fontSize=8;shape=mxgraph.eip.channel_adapter;fillColor=#9ddbef;" parent="1" vertex="1">
          <mxGeometry x="787" y="164" width="50" height="110" as="geometry" />
        </mxCell>
        <mxCell id="MyfAIEl0TEhj5KPefulC-68" value="" style="endArrow=classic;html=1;rounded=0;strokeColor=#009900;exitX=1;exitY=0.5;exitDx=0;exitDy=0;targetPerimeterSpacing=0;strokeWidth=2;endSize=6;" parent="1" source="MyfAIEl0TEhj5KPefulC-93" edge="1">
          <mxGeometry width="50" height="50" relative="1" as="geometry">
            <mxPoint x="656.781" y="612.9499999999999" as="sourcePoint" />
            <mxPoint x="786" y="620" as="targetPoint" />
            <Array as="points">
              <mxPoint x="670" y="607" />
              <mxPoint x="670" y="620" />
            </Array>
          </mxGeometry>
        </mxCell>
        <mxCell id="MyfAIEl0TEhj5KPefulC-69" value="" style="endArrow=classic;html=1;rounded=0;strokeColor=#009900;strokeWidth=2;" parent="1" edge="1">
          <mxGeometry width="50" height="50" relative="1" as="geometry">
            <mxPoint x="535" y="608" as="sourcePoint" />
            <mxPoint x="566" y="608" as="targetPoint" />
          </mxGeometry>
        </mxCell>
        <mxCell id="A-LOzwlHvo55EF8Y7pXs-6" value="" style="endArrow=classic;html=1;rounded=0;entryX=1;entryY=0.5;entryDx=0;entryDy=0;strokeWidth=2;" parent="1" target="A-LOzwlHvo55EF8Y7pXs-5" edge="1">
          <mxGeometry width="50" height="50" relative="1" as="geometry">
            <mxPoint x="786" y="221" as="sourcePoint" />
            <mxPoint x="747" y="241.65999999999997" as="targetPoint" />
          </mxGeometry>
        </mxCell>
        <mxCell id="A-LOzwlHvo55EF8Y7pXs-30" value="" style="endArrow=baseDash;html=1;rounded=0;endFill=0;strokeColor=#009900;strokeWidth=2;" parent="1" edge="1">
          <mxGeometry width="50" height="50" relative="1" as="geometry">
            <mxPoint x="786" y="190" as="sourcePoint" />
            <mxPoint x="307" y="230" as="targetPoint" />
            <Array as="points">
              <mxPoint x="760" y="190" />
              <mxPoint x="760" y="160" />
              <mxPoint x="307" y="160" />
            </Array>
          </mxGeometry>
        </mxCell>
        <mxCell id="A-LOzwlHvo55EF8Y7pXs-31" value="Feedback message" style="edgeLabel;html=1;align=center;verticalAlign=middle;resizable=0;points=[];" parent="A-LOzwlHvo55EF8Y7pXs-30" vertex="1" connectable="0">
          <mxGeometry x="-0.2877" y="-2" relative="1" as="geometry">
            <mxPoint as="offset" />
          </mxGeometry>
        </mxCell>
        <mxCell id="MyfAIEl0TEhj5KPefulC-89" value="" style="html=1;verticalLabelPosition=bottom;align=center;labelBackgroundColor=#ffffff;verticalAlign=top;strokeWidth=1;strokeColor=#808080;shadow=0;dashed=0;shape=mxgraph.ios7.icons.settings;" parent="1" vertex="1">
          <mxGeometry x="501.5" y="555" width="10" height="10" as="geometry" />
        </mxCell>
        <mxCell id="MyfAIEl0TEhj5KPefulC-90" value="" style="html=1;verticalLabelPosition=bottom;align=center;labelBackgroundColor=#ffffff;verticalAlign=top;strokeWidth=1;strokeColor=#808080;shadow=0;dashed=0;shape=mxgraph.ios7.icons.settings;" parent="1" vertex="1">
          <mxGeometry x="521.5" y="575" width="10" height="10" as="geometry" />
        </mxCell>
        <mxCell id="MyfAIEl0TEhj5KPefulC-92" value="" style="endArrow=classic;html=1;rounded=0;startArrow=baseDash;startFill=0;strokeColor=#009900;strokeWidth=2;" parent="1" edge="1">
          <mxGeometry width="50" height="50" relative="1" as="geometry">
            <mxPoint x="307" y="242" as="sourcePoint" />
            <mxPoint x="277" y="335" as="targetPoint" />
            <Array as="points">
              <mxPoint x="307" y="335" />
            </Array>
          </mxGeometry>
        </mxCell>
        <mxCell id="A-LOzwlHvo55EF8Y7pXs-5" value="sort&lt;div&gt;message&lt;/div&gt;" style="rhombus;whiteSpace=wrap;html=1;" parent="1" vertex="1">
          <mxGeometry x="667" y="181" width="80" height="80" as="geometry" />
        </mxCell>
        <mxCell id="A-LOzwlHvo55EF8Y7pXs-7" value="social&amp;nbsp;&lt;div&gt;message processing&lt;/div&gt;" style="shape=process;whiteSpace=wrap;html=1;backgroundOutline=1;" parent="1" vertex="1">
          <mxGeometry x="627" y="319" width="120" height="60" as="geometry" />
        </mxCell>
        <mxCell id="A-LOzwlHvo55EF8Y7pXs-8" value="" style="endArrow=classic;html=1;rounded=0;exitX=0.5;exitY=1;exitDx=0;exitDy=0;entryX=0.66;entryY=-0.022;entryDx=0;entryDy=0;dashed=1;entryPerimeter=0;strokeWidth=2;" parent="1" source="A-LOzwlHvo55EF8Y7pXs-5" target="A-LOzwlHvo55EF8Y7pXs-7" edge="1">
          <mxGeometry width="50" height="50" relative="1" as="geometry">
            <mxPoint x="387" y="362" as="sourcePoint" />
            <mxPoint x="437" y="312" as="targetPoint" />
          </mxGeometry>
        </mxCell>
        <mxCell id="A-LOzwlHvo55EF8Y7pXs-9" value="social message" style="edgeLabel;html=1;align=center;verticalAlign=middle;resizable=0;points=[];" parent="A-LOzwlHvo55EF8Y7pXs-8" vertex="1" connectable="0">
          <mxGeometry x="-0.3905" relative="1" as="geometry">
            <mxPoint y="5" as="offset" />
          </mxGeometry>
        </mxCell>
        <mxCell id="A-LOzwlHvo55EF8Y7pXs-14" value="msg queue" style="swimlane;fontStyle=0;childLayout=stackLayout;horizontal=1;startSize=20;horizontalStack=0;resizeParent=1;resizeParentMax=0;resizeLast=0;collapsible=1;marginBottom=0;whiteSpace=wrap;html=1;swimlaneLine=1;perimeterSpacing=0;movable=0;resizable=0;rotatable=0;deletable=0;editable=0;locked=1;connectable=0;" parent="1" vertex="1">
          <mxGeometry x="547" y="182" width="80" height="80" as="geometry">
            <mxRectangle x="350" y="60" width="60" height="30" as="alternateBounds" />
          </mxGeometry>
        </mxCell>
        <mxCell id="A-LOzwlHvo55EF8Y7pXs-15" value="message 1" style="text;strokeColor=none;fillColor=none;align=left;verticalAlign=middle;spacingLeft=4;spacingRight=4;overflow=hidden;points=[[0,0.5],[1,0.5]];portConstraint=eastwest;rotatable=0;whiteSpace=wrap;html=1;" parent="A-LOzwlHvo55EF8Y7pXs-14" vertex="1">
          <mxGeometry y="20" width="80" height="20" as="geometry" />
        </mxCell>
        <mxCell id="A-LOzwlHvo55EF8Y7pXs-16" value="message 2" style="text;strokeColor=none;fillColor=none;align=left;verticalAlign=middle;spacingLeft=4;spacingRight=4;overflow=hidden;points=[[0,0.5],[1,0.5]];portConstraint=eastwest;rotatable=0;whiteSpace=wrap;html=1;" parent="A-LOzwlHvo55EF8Y7pXs-14" vertex="1">
          <mxGeometry y="40" width="80" height="20" as="geometry" />
        </mxCell>
        <mxCell id="A-LOzwlHvo55EF8Y7pXs-17" value="message 3" style="text;strokeColor=none;fillColor=none;align=left;verticalAlign=middle;spacingLeft=4;spacingRight=4;overflow=hidden;points=[[0,0.5],[1,0.5]];portConstraint=eastwest;rotatable=0;whiteSpace=wrap;html=1;" parent="A-LOzwlHvo55EF8Y7pXs-14" vertex="1">
          <mxGeometry y="60" width="80" height="20" as="geometry" />
        </mxCell>
        <mxCell id="A-LOzwlHvo55EF8Y7pXs-18" value="" style="endArrow=classic;html=1;rounded=0;exitX=0;exitY=0.5;exitDx=0;exitDy=0;entryX=1.01;entryY=-0.02;entryDx=0;entryDy=0;entryPerimeter=0;strokeWidth=2;" parent="1" source="A-LOzwlHvo55EF8Y7pXs-5" target="A-LOzwlHvo55EF8Y7pXs-16" edge="1">
          <mxGeometry width="50" height="50" relative="1" as="geometry">
            <mxPoint x="427" y="262" as="sourcePoint" />
            <mxPoint x="437" y="312" as="targetPoint" />
          </mxGeometry>
        </mxCell>
        <mxCell id="A-LOzwlHvo55EF8Y7pXs-19" value="" style="endArrow=none;dashed=1;html=1;dashPattern=1 3;strokeWidth=2;rounded=0;entryX=0;entryY=0.5;entryDx=0;entryDy=0;exitX=0.504;exitY=1.071;exitDx=0;exitDy=0;exitPerimeter=0;" parent="1" target="A-LOzwlHvo55EF8Y7pXs-7" edge="1">
          <mxGeometry width="50" height="50" relative="1" as="geometry">
            <mxPoint x="587.3200000000002" y="262.41999999999996" as="sourcePoint" />
            <mxPoint x="627" y="347" as="targetPoint" />
            <Array as="points">
              <mxPoint x="587" y="349" />
            </Array>
          </mxGeometry>
        </mxCell>
        <mxCell id="A-LOzwlHvo55EF8Y7pXs-20" value="Feedback" style="shape=datastore;whiteSpace=wrap;html=1;fillColor=#60a917;strokeColor=#2D7600;fontColor=#ffffff;" parent="1" vertex="1">
          <mxGeometry x="207" y="292" width="70" height="70" as="geometry" />
        </mxCell>
        <mxCell id="A-LOzwlHvo55EF8Y7pXs-24" value="Reflection" style="shape=datastore;whiteSpace=wrap;html=1;fillColor=#a20025;strokeColor=#6F0000;fontColor=#ffffff;" parent="1" vertex="1">
          <mxGeometry x="207" y="592" width="70" height="70" as="geometry" />
        </mxCell>
        <mxCell id="A-LOzwlHvo55EF8Y7pXs-23" value="Long Term" style="shape=datastore;whiteSpace=wrap;html=1;fillColor=#1ba1e2;strokeColor=#006EAF;fontColor=#ffffff;" parent="1" vertex="1">
          <mxGeometry x="207" y="492" width="70" height="70" as="geometry" />
        </mxCell>
        <mxCell id="A-LOzwlHvo55EF8Y7pXs-22" value="Short Term" style="shape=datastore;whiteSpace=wrap;html=1;" parent="1" vertex="1">
          <mxGeometry x="207" y="392" width="70" height="70" as="geometry" />
        </mxCell>
        <mxCell id="A-LOzwlHvo55EF8Y7pXs-26" value="conversations" style="swimlane;fontStyle=0;childLayout=stackLayout;horizontal=1;startSize=20;horizontalStack=0;resizeParent=1;resizeParentMax=0;resizeLast=0;collapsible=1;marginBottom=0;whiteSpace=wrap;html=1;movable=0;resizable=0;rotatable=0;deletable=0;editable=0;locked=1;connectable=0;" parent="1" vertex="1">
          <mxGeometry x="207" y="182" width="80" height="80" as="geometry">
            <mxRectangle x="10" y="60" width="109" height="26" as="alternateBounds" />
          </mxGeometry>
        </mxCell>
        <mxCell id="A-LOzwlHvo55EF8Y7pXs-27" value="conv 1" style="text;strokeColor=none;fillColor=none;align=left;verticalAlign=middle;spacingLeft=4;spacingRight=4;overflow=hidden;points=[[0,0.5],[1,0.5]];portConstraint=eastwest;rotatable=0;whiteSpace=wrap;html=1;" parent="A-LOzwlHvo55EF8Y7pXs-26" vertex="1">
          <mxGeometry y="20" width="80" height="20" as="geometry" />
        </mxCell>
        <mxCell id="A-LOzwlHvo55EF8Y7pXs-28" value="conv 2" style="text;strokeColor=none;fillColor=none;align=left;verticalAlign=middle;spacingLeft=4;spacingRight=4;overflow=hidden;points=[[0,0.5],[1,0.5]];portConstraint=eastwest;rotatable=0;whiteSpace=wrap;html=1;" parent="A-LOzwlHvo55EF8Y7pXs-26" vertex="1">
          <mxGeometry y="40" width="80" height="20" as="geometry" />
        </mxCell>
        <mxCell id="A-LOzwlHvo55EF8Y7pXs-29" value="conv 3" style="text;strokeColor=none;fillColor=none;align=left;verticalAlign=middle;spacingLeft=4;spacingRight=4;overflow=hidden;points=[[0,0.5],[1,0.5]];portConstraint=eastwest;rotatable=0;whiteSpace=wrap;html=1;" parent="A-LOzwlHvo55EF8Y7pXs-26" vertex="1">
          <mxGeometry y="60" width="80" height="20" as="geometry" />
        </mxCell>
        <mxCell id="MyfAIEl0TEhj5KPefulC-6" value="LLM Input" style="swimlane;fontStyle=0;childLayout=stackLayout;horizontal=1;startSize=20;horizontalStack=0;resizeParent=1;resizeParentMax=0;resizeLast=0;collapsible=1;marginBottom=0;whiteSpace=wrap;html=1;fillColor=default;swimlaneFillColor=none;movable=0;resizable=0;rotatable=0;deletable=0;editable=0;locked=1;connectable=0;" parent="1" vertex="1">
          <mxGeometry x="407" y="182" width="100" height="100" as="geometry">
            <mxRectangle x="210" y="60" width="90" height="30" as="alternateBounds" />
          </mxGeometry>
        </mxCell>
        <mxCell id="MyfAIEl0TEhj5KPefulC-7" value="System Prompt" style="text;strokeColor=none;fillColor=none;align=left;verticalAlign=middle;spacingLeft=4;spacingRight=4;overflow=hidden;points=[[0,0.5],[1,0.5]];portConstraint=eastwest;rotatable=0;whiteSpace=wrap;html=1;" parent="MyfAIEl0TEhj5KPefulC-6" vertex="1">
          <mxGeometry y="20" width="100" height="20" as="geometry" />
        </mxCell>
        <mxCell id="MyfAIEl0TEhj5KPefulC-8" value="Conv History" style="text;strokeColor=none;fillColor=none;align=left;verticalAlign=middle;spacingLeft=4;spacingRight=4;overflow=hidden;points=[[0,0.5],[1,0.5]];portConstraint=eastwest;rotatable=0;whiteSpace=wrap;html=1;" parent="MyfAIEl0TEhj5KPefulC-6" vertex="1">
          <mxGeometry y="40" width="100" height="30" as="geometry" />
        </mxCell>
        <mxCell id="MyfAIEl0TEhj5KPefulC-9" value="Current Msg" style="text;strokeColor=none;fillColor=none;align=left;verticalAlign=middle;spacingLeft=4;spacingRight=4;overflow=hidden;points=[[0,0.5],[1,0.5]];portConstraint=eastwest;rotatable=0;whiteSpace=wrap;html=1;" parent="MyfAIEl0TEhj5KPefulC-6" vertex="1">
          <mxGeometry y="70" width="100" height="30" as="geometry" />
        </mxCell>
        <mxCell id="MyfAIEl0TEhj5KPefulC-12" value="" style="rhombus;whiteSpace=wrap;html=1;" parent="1" vertex="1">
          <mxGeometry x="327" y="212" width="50" height="50" as="geometry" />
        </mxCell>
        <mxCell id="MyfAIEl0TEhj5KPefulC-13" value="" style="endArrow=classic;html=1;rounded=0;exitX=1;exitY=0.5;exitDx=0;exitDy=0;entryX=0;entryY=0.5;entryDx=0;entryDy=0;strokeWidth=2;" parent="1" source="MyfAIEl0TEhj5KPefulC-12" target="MyfAIEl0TEhj5KPefulC-8" edge="1">
          <mxGeometry width="50" height="50" relative="1" as="geometry">
            <mxPoint x="487" y="332" as="sourcePoint" />
            <mxPoint x="537" y="282" as="targetPoint" />
          </mxGeometry>
        </mxCell>
        <mxCell id="MyfAIEl0TEhj5KPefulC-14" value="" style="endArrow=classic;html=1;rounded=0;strokeWidth=2;" parent="1" edge="1">
          <mxGeometry width="50" height="50" relative="1" as="geometry">
            <mxPoint x="547" y="230" as="sourcePoint" />
            <mxPoint x="507" y="272" as="targetPoint" />
            <Array as="points">
              <mxPoint x="530" y="230" />
              <mxPoint x="530" y="272" />
            </Array>
          </mxGeometry>
        </mxCell>
        <mxCell id="MyfAIEl0TEhj5KPefulC-23" value="tool&lt;div&gt;loop&lt;/div&gt;" style="rhombus;whiteSpace=wrap;html=1;" parent="1" vertex="1">
          <mxGeometry x="409" y="432" width="55" height="50" as="geometry" />
        </mxCell>
        <mxCell id="MyfAIEl0TEhj5KPefulC-24" value="" style="endArrow=classic;html=1;rounded=0;entryX=0.5;entryY=0;entryDx=0;entryDy=0;exitX=0.5;exitY=1;exitDx=0;exitDy=0;strokeWidth=2;" parent="1" source="MyfAIEl0TEhj5KPefulC-85" target="MyfAIEl0TEhj5KPefulC-23" edge="1">
          <mxGeometry width="50" height="50" relative="1" as="geometry">
            <mxPoint x="435" y="402" as="sourcePoint" />
            <mxPoint x="687" y="402" as="targetPoint" />
            <Array as="points">
              <mxPoint x="457" y="402" />
              <mxPoint x="437" y="402" />
            </Array>
          </mxGeometry>
        </mxCell>
        <mxCell id="MyfAIEl0TEhj5KPefulC-25" value="" style="endArrow=classic;html=1;rounded=0;exitX=0;exitY=0.5;exitDx=0;exitDy=0;entryX=0;entryY=0.5;entryDx=0;entryDy=0;strokeWidth=2;" parent="1" source="MyfAIEl0TEhj5KPefulC-23" target="MyfAIEl0TEhj5KPefulC-32" edge="1">
          <mxGeometry width="50" height="50" relative="1" as="geometry">
            <mxPoint x="427" y="512" as="sourcePoint" />
            <mxPoint x="372" y="562" as="targetPoint" />
            <Array as="points">
              <mxPoint x="347" y="457" />
              <mxPoint x="347" y="562" />
            </Array>
          </mxGeometry>
        </mxCell>
        <mxCell id="MyfAIEl0TEhj5KPefulC-30" value="Yes" style="edgeLabel;html=1;align=center;verticalAlign=middle;resizable=0;points=[];" parent="MyfAIEl0TEhj5KPefulC-25" vertex="1" connectable="0">
          <mxGeometry x="0.0632" y="-1" relative="1" as="geometry">
            <mxPoint x="31" y="-42" as="offset" />
          </mxGeometry>
        </mxCell>
        <mxCell id="MyfAIEl0TEhj5KPefulC-28" value="" style="endArrow=classic;html=1;rounded=0;exitX=0.503;exitY=1.022;exitDx=0;exitDy=0;exitPerimeter=0;entryX=0.5;entryY=0;entryDx=0;entryDy=0;strokeWidth=2;" parent="1" source="MyfAIEl0TEhj5KPefulC-9" target="MyfAIEl0TEhj5KPefulC-85" edge="1">
          <mxGeometry width="50" height="50" relative="1" as="geometry">
            <mxPoint x="457" y="292" as="sourcePoint" />
            <mxPoint x="458" y="312" as="targetPoint" />
          </mxGeometry>
        </mxCell>
        <mxCell id="MyfAIEl0TEhj5KPefulC-31" value="" style="endArrow=classic;html=1;rounded=0;entryX=0.5;entryY=1;entryDx=0;entryDy=0;strokeWidth=2;" parent="1" target="MyfAIEl0TEhj5KPefulC-23" edge="1">
          <mxGeometry width="50" height="50" relative="1" as="geometry">
            <mxPoint x="437" y="532" as="sourcePoint" />
            <mxPoint x="557" y="472" as="targetPoint" />
          </mxGeometry>
        </mxCell>
        <mxCell id="MyfAIEl0TEhj5KPefulC-40" value="" style="endArrow=classic;html=1;rounded=0;exitX=1;exitY=0.5;exitDx=0;exitDy=0;entryX=0;entryY=0.5;entryDx=0;entryDy=0;strokeWidth=2;" parent="1" source="MyfAIEl0TEhj5KPefulC-23" target="MyfAIEl0TEhj5KPefulC-86" edge="1">
          <mxGeometry width="50" height="50" relative="1" as="geometry">
            <mxPoint x="470.33" y="462" as="sourcePoint" />
            <mxPoint x="507" y="457" as="targetPoint" />
          </mxGeometry>
        </mxCell>
        <mxCell id="MyfAIEl0TEhj5KPefulC-41" value="No" style="edgeLabel;html=1;align=center;verticalAlign=middle;resizable=0;points=[];" parent="MyfAIEl0TEhj5KPefulC-40" vertex="1" connectable="0">
          <mxGeometry x="-0.2205" relative="1" as="geometry">
            <mxPoint as="offset" />
          </mxGeometry>
        </mxCell>
        <mxCell id="MyfAIEl0TEhj5KPefulC-42" value="" style="endArrow=classic;html=1;rounded=0;exitX=0.5;exitY=0;exitDx=0;exitDy=0;strokeWidth=2;" parent="1" edge="1">
          <mxGeometry width="50" height="50" relative="1" as="geometry">
            <mxPoint x="567" y="432" as="sourcePoint" />
            <mxPoint x="503" y="362" as="targetPoint" />
            <Array as="points">
              <mxPoint x="567" y="362" />
            </Array>
          </mxGeometry>
        </mxCell>
        <mxCell id="MyfAIEl0TEhj5KPefulC-122" value="Continue" style="edgeLabel;html=1;align=center;verticalAlign=middle;resizable=0;points=[];" parent="MyfAIEl0TEhj5KPefulC-42" vertex="1" connectable="0">
          <mxGeometry x="-0.4463" relative="1" as="geometry">
            <mxPoint as="offset" />
          </mxGeometry>
        </mxCell>
        <mxCell id="MyfAIEl0TEhj5KPefulC-46" value="tool calls" style="text;html=1;align=center;verticalAlign=middle;whiteSpace=wrap;rounded=0;" parent="1" vertex="1">
          <mxGeometry x="372.5" y="527" width="94.5" height="30" as="geometry" />
        </mxCell>
        <mxCell id="MyfAIEl0TEhj5KPefulC-86" value="Continue&lt;div&gt;or Stop?&lt;/div&gt;" style="rounded=1;whiteSpace=wrap;html=1;" parent="1" vertex="1">
          <mxGeometry x="520.84" y="432" width="91.5" height="50" as="geometry" />
        </mxCell>
        <mxCell id="MyfAIEl0TEhj5KPefulC-88" value="" style="html=1;verticalLabelPosition=bottom;align=center;labelBackgroundColor=#ffffff;verticalAlign=top;strokeWidth=1;strokeColor=#808080;shadow=0;dashed=0;shape=mxgraph.ios7.icons.settings;" parent="1" vertex="1">
          <mxGeometry x="481.5" y="535" width="10" height="10" as="geometry" />
        </mxCell>
        <mxCell id="MyfAIEl0TEhj5KPefulC-93" value="Provide Feedback" style="rounded=1;whiteSpace=wrap;html=1;fillColor=#60a917;strokeColor=#2D7600;fontColor=#ffffff;" parent="1" vertex="1">
          <mxGeometry x="566" y="582" width="91.5" height="50" as="geometry" />
        </mxCell>
        <mxCell id="MyfAIEl0TEhj5KPefulC-96" value="" style="shape=image;html=1;verticalAlign=top;verticalLabelPosition=bottom;labelBackgroundColor=#ffffff;imageAspect=0;aspect=fixed;image=https://cdn0.iconfinder.com/data/icons/phosphor-duotone-vol-3/256/robot-duotone-128.png;imageBackground=default;" parent="1" vertex="1">
          <mxGeometry x="550" y="567" width="33" height="33" as="geometry" />
        </mxCell>
        <mxCell id="MyfAIEl0TEhj5KPefulC-95" value="" style="shape=image;html=1;verticalAlign=top;verticalLabelPosition=bottom;labelBackgroundColor=#ffffff;imageAspect=0;aspect=fixed;image=https://cdn0.iconfinder.com/data/icons/phosphor-duotone-vol-3/256/robot-duotone-128.png;imageBackground=default;" parent="1" vertex="1">
          <mxGeometry x="507" y="418" width="33" height="33" as="geometry" />
        </mxCell>
        <mxCell id="MyfAIEl0TEhj5KPefulC-80" value="" style="shape=image;html=1;verticalAlign=top;verticalLabelPosition=bottom;labelBackgroundColor=#ffffff;imageAspect=0;aspect=fixed;image=https://cdn0.iconfinder.com/data/icons/phosphor-duotone-vol-3/256/robot-duotone-128.png;imageBackground=default;imageBorder=none;" parent="1" vertex="1">
          <mxGeometry x="396" y="305" width="33" height="33" as="geometry" />
        </mxCell>
        <mxCell id="MyfAIEl0TEhj5KPefulC-107" value="" style="endArrow=classic;html=1;rounded=0;exitX=0;exitY=0.5;exitDx=0;exitDy=0;dashed=1;jumpStyle=none;strokeWidth=2;" parent="1" source="A-LOzwlHvo55EF8Y7pXs-28" edge="1">
          <mxGeometry width="50" height="50" relative="1" as="geometry">
            <mxPoint x="120" y="282" as="sourcePoint" />
            <mxPoint x="240" y="390" as="targetPoint" />
            <Array as="points">
              <mxPoint x="190" y="232" />
              <mxPoint x="190" y="370" />
              <mxPoint x="240" y="370" />
            </Array>
          </mxGeometry>
        </mxCell>
        <mxCell id="MyfAIEl0TEhj5KPefulC-110" value="" style="endArrow=classic;html=1;rounded=0;entryX=0.5;entryY=0;entryDx=0;entryDy=0;strokeColor=#0000CC;strokeWidth=2;" parent="1" target="MyfAIEl0TEhj5KPefulC-108" edge="1">
          <mxGeometry width="50" height="50" relative="1" as="geometry">
            <mxPoint x="207" y="320" as="sourcePoint" />
            <mxPoint x="171.5" y="300" as="targetPoint" />
            <Array as="points">
              <mxPoint x="150" y="320" />
            </Array>
          </mxGeometry>
        </mxCell>
        <mxCell id="MyfAIEl0TEhj5KPefulC-112" value="" style="endArrow=classic;html=1;rounded=0;strokeWidth=2;strokeColor=#0000CC;" parent="1" edge="1">
          <mxGeometry width="50" height="50" relative="1" as="geometry">
            <mxPoint x="150" y="503" as="sourcePoint" />
            <mxPoint x="207" y="540" as="targetPoint" />
            <Array as="points">
              <mxPoint x="150" y="540" />
            </Array>
          </mxGeometry>
        </mxCell>
        <mxCell id="MyfAIEl0TEhj5KPefulC-113" value="" style="endArrow=baseDash;html=1;rounded=0;endFill=0;startArrow=baseDash;startFill=0;strokeWidth=2;strokeColor=#990000;" parent="1" edge="1">
          <mxGeometry width="50" height="50" relative="1" as="geometry">
            <mxPoint x="145" y="346" as="sourcePoint" />
            <mxPoint x="125" y="445" as="targetPoint" />
            <Array as="points">
              <mxPoint x="125" y="346" />
            </Array>
          </mxGeometry>
        </mxCell>
        <mxCell id="MyfAIEl0TEhj5KPefulC-114" value="" style="endArrow=baseDash;html=1;rounded=0;exitX=-0.018;exitY=0.768;exitDx=0;exitDy=0;exitPerimeter=0;endFill=0;strokeColor=#990000;strokeWidth=2;" parent="1" edge="1">
          <mxGeometry width="50" height="50" relative="1" as="geometry">
            <mxPoint x="206.7399999999999" y="345.76" as="sourcePoint" />
            <mxPoint x="156" y="346" as="targetPoint" />
          </mxGeometry>
        </mxCell>
        <mxCell id="MyfAIEl0TEhj5KPefulC-116" value="" style="endArrow=classic;html=1;rounded=0;entryX=-0.018;entryY=0.685;entryDx=0;entryDy=0;entryPerimeter=0;startArrow=none;startFill=0;strokeWidth=2;strokeColor=#990000;" parent="1" target="A-LOzwlHvo55EF8Y7pXs-24" edge="1">
          <mxGeometry width="50" height="50" relative="1" as="geometry">
            <mxPoint x="126" y="601" as="sourcePoint" />
            <mxPoint x="202.7199999999999" y="630.21" as="targetPoint" />
            <Array as="points">
              <mxPoint x="126" y="640" />
            </Array>
          </mxGeometry>
        </mxCell>
        <mxCell id="MyfAIEl0TEhj5KPefulC-117" value="" style="endArrow=baseDash;html=1;rounded=0;strokeColor=#990000;strokeWidth=2;endFill=0;" parent="1" edge="1">
          <mxGeometry width="50" height="50" relative="1" as="geometry">
            <mxPoint x="207" y="430" as="sourcePoint" />
            <mxPoint x="156" y="430" as="targetPoint" />
          </mxGeometry>
        </mxCell>
        <mxCell id="MyfAIEl0TEhj5KPefulC-118" value="" style="endArrow=baseDash;html=1;rounded=0;strokeColor=#990000;strokeWidth=2;endFill=0;startArrow=oval;startFill=1;" parent="1" edge="1">
          <mxGeometry width="50" height="50" relative="1" as="geometry">
            <mxPoint x="125" y="430" as="sourcePoint" />
            <mxPoint x="145" y="430" as="targetPoint" />
          </mxGeometry>
        </mxCell>
        <mxCell id="MyfAIEl0TEhj5KPefulC-108" value="Memory Consolidation" style="rounded=1;whiteSpace=wrap;html=1;fillColor=#1ba1e2;strokeColor=#006EAF;fontColor=#ffffff;" parent="1" vertex="1">
          <mxGeometry x="110" y="451" width="81.5" height="51" as="geometry" />
        </mxCell>
        <mxCell id="MyfAIEl0TEhj5KPefulC-109" value="Memory Reflection" style="rounded=1;whiteSpace=wrap;html=1;fillColor=#a20025;strokeColor=#6F0000;fontColor=#ffffff;" parent="1" vertex="1">
          <mxGeometry x="90" y="550" width="81.5" height="51" as="geometry" />
        </mxCell>
        <mxCell id="MyfAIEl0TEhj5KPefulC-111" value="" style="endArrow=oval;html=1;rounded=0;exitX=-0.009;exitY=0.4;exitDx=0;exitDy=0;exitPerimeter=0;endFill=1;curved=0;strokeColor=#0000CC;strokeWidth=2;" parent="1" edge="1">
          <mxGeometry width="50" height="50" relative="1" as="geometry">
            <mxPoint x="207" y="414" as="sourcePoint" />
            <mxPoint x="151" y="414" as="targetPoint" />
          </mxGeometry>
        </mxCell>
        <mxCell id="MyfAIEl0TEhj5KPefulC-115" value="" style="endArrow=classic;html=1;rounded=0;endFill=1;startArrow=baseDash;startFill=0;strokeColor=#990000;strokeWidth=2;" parent="1" edge="1">
          <mxGeometry width="50" height="50" relative="1" as="geometry">
            <mxPoint x="126" y="507" as="sourcePoint" />
            <mxPoint x="126" y="550" as="targetPoint" />
          </mxGeometry>
        </mxCell>
        <mxCell id="MyfAIEl0TEhj5KPefulC-121" value="" style="shape=image;html=1;verticalAlign=top;verticalLabelPosition=bottom;labelBackgroundColor=#ffffff;imageAspect=0;aspect=fixed;image=https://cdn0.iconfinder.com/data/icons/phosphor-duotone-vol-3/256/robot-duotone-128.png;imageBackground=default;" parent="1" vertex="1">
          <mxGeometry x="75" y="534" width="33" height="33" as="geometry" />
        </mxCell>
        <mxCell id="MyfAIEl0TEhj5KPefulC-120" value="" style="shape=image;html=1;verticalAlign=top;verticalLabelPosition=bottom;labelBackgroundColor=#ffffff;imageAspect=0;aspect=fixed;image=https://cdn0.iconfinder.com/data/icons/phosphor-duotone-vol-3/256/robot-duotone-128.png;imageBackground=default;" parent="1" vertex="1">
          <mxGeometry x="91" y="435" width="33" height="33" as="geometry" />
        </mxCell>
        <mxCell id="EK_gnBU_sG1Yhc5XpYXd-1" value="Agent Architecture - Standard Messages, Memory Consolidation &amp;amp; Feedback" style="swimlane;whiteSpace=wrap;html=1;strokeWidth=2;" parent="1" vertex="1">
          <mxGeometry x="60" y="119" width="727" height="591" as="geometry" />
        </mxCell>
        <mxCell id="MyfAIEl0TEhj5KPefulC-10" value="" style="endArrow=classic;html=1;rounded=0;strokeWidth=2;" parent="EK_gnBU_sG1Yhc5XpYXd-1" edge="1">
          <mxGeometry width="50" height="50" relative="1" as="geometry">
            <mxPoint x="227" y="117.9" as="sourcePoint" />
            <mxPoint x="267" y="117.9" as="targetPoint" />
          </mxGeometry>
        </mxCell>
        <mxCell id="EK_gnBU_sG1Yhc5XpYXd-3" value="" style="endArrow=classic;html=1;rounded=0;strokeWidth=2;strokeColor=#009900;" parent="EK_gnBU_sG1Yhc5XpYXd-1" edge="1">
          <mxGeometry width="50" height="50" relative="1" as="geometry">
            <mxPoint x="295" y="41" as="sourcePoint" />
            <mxPoint x="269" y="41" as="targetPoint" />
          </mxGeometry>
        </mxCell>
        <mxCell id="EK_gnBU_sG1Yhc5XpYXd-6" value="" style="endArrow=classic;html=1;rounded=0;strokeWidth=2;strokeColor=#009900;" parent="EK_gnBU_sG1Yhc5XpYXd-1" edge="1">
          <mxGeometry width="50" height="50" relative="1" as="geometry">
            <mxPoint x="391" y="41" as="sourcePoint" />
            <mxPoint x="365" y="41" as="targetPoint" />
          </mxGeometry>
        </mxCell>
        <mxCell id="EK_gnBU_sG1Yhc5XpYXd-5" value="" style="endArrow=classic;html=1;rounded=0;strokeWidth=2;strokeColor=#009900;" parent="EK_gnBU_sG1Yhc5XpYXd-1" edge="1">
          <mxGeometry width="50" height="50" relative="1" as="geometry">
            <mxPoint x="656" y="41" as="sourcePoint" />
            <mxPoint x="630" y="41" as="targetPoint" />
          </mxGeometry>
        </mxCell>
        <mxCell id="EK_gnBU_sG1Yhc5XpYXd-4" value="" style="endArrow=classic;html=1;rounded=0;strokeWidth=2;strokeColor=#009900;" parent="EK_gnBU_sG1Yhc5XpYXd-1" edge="1">
          <mxGeometry width="50" height="50" relative="1" as="geometry">
            <mxPoint x="499" y="41" as="sourcePoint" />
            <mxPoint x="473" y="41" as="targetPoint" />
          </mxGeometry>
        </mxCell>
        <mxCell id="EK_gnBU_sG1Yhc5XpYXd-7" value="" style="endArrow=classic;html=1;rounded=0;strokeWidth=2;" parent="EK_gnBU_sG1Yhc5XpYXd-1" edge="1">
          <mxGeometry width="50" height="50" relative="1" as="geometry">
            <mxPoint x="292" y="259" as="sourcePoint" />
            <mxPoint x="292" y="219" as="targetPoint" />
          </mxGeometry>
        </mxCell>
        <mxCell id="EK_gnBU_sG1Yhc5XpYXd-11" value="" style="endArrow=classic;html=1;rounded=0;strokeWidth=2;strokeColor=#990000;" parent="EK_gnBU_sG1Yhc5XpYXd-1" edge="1">
          <mxGeometry width="50" height="50" relative="1" as="geometry">
            <mxPoint x="66" y="496" as="sourcePoint" />
            <mxPoint x="66" y="520" as="targetPoint" />
          </mxGeometry>
        </mxCell>
        <mxCell id="EK_gnBU_sG1Yhc5XpYXd-12" value="" style="endArrow=classic;html=1;rounded=0;strokeWidth=2;strokeColor=#0000CC;" parent="EK_gnBU_sG1Yhc5XpYXd-1" edge="1">
          <mxGeometry width="50" height="50" relative="1" as="geometry">
            <mxPoint x="90.2" y="230" as="sourcePoint" />
            <mxPoint x="90.2" y="254" as="targetPoint" />
          </mxGeometry>
        </mxCell>
        <mxCell id="EK_gnBU_sG1Yhc5XpYXd-13" value="" style="endArrow=classic;html=1;rounded=0;strokeWidth=2;strokeColor=#0000CC;" parent="EK_gnBU_sG1Yhc5XpYXd-1" edge="1">
          <mxGeometry width="50" height="50" relative="1" as="geometry">
            <mxPoint x="90" y="383" as="sourcePoint" />
            <mxPoint x="90" y="418" as="targetPoint" />
          </mxGeometry>
        </mxCell>
        <mxCell id="EK_gnBU_sG1Yhc5XpYXd-14" value="" style="endArrow=classic;html=1;rounded=0;strokeWidth=2;" parent="EK_gnBU_sG1Yhc5XpYXd-1" edge="1">
          <mxGeometry width="50" height="50" relative="1" as="geometry">
            <mxPoint x="610" y="361" as="sourcePoint" />
            <mxPoint x="610" y="397" as="targetPoint" />
          </mxGeometry>
        </mxCell>
        <mxCell id="EK_gnBU_sG1Yhc5XpYXd-15" value="" style="endArrow=classic;html=1;rounded=0;strokeWidth=2;strokeColor=#6600CC;" parent="EK_gnBU_sG1Yhc5XpYXd-1" edge="1">
          <mxGeometry width="50" height="50" relative="1" as="geometry">
            <mxPoint x="700" y="131" as="sourcePoint" />
            <mxPoint x="700" y="167" as="targetPoint" />
          </mxGeometry>
        </mxCell>
        <mxCell id="EK_gnBU_sG1Yhc5XpYXd-16" value="" style="endArrow=classic;html=1;rounded=0;strokeWidth=2;strokeColor=#6600CC;" parent="EK_gnBU_sG1Yhc5XpYXd-1" edge="1">
          <mxGeometry width="50" height="50" relative="1" as="geometry">
            <mxPoint x="700" y="251" as="sourcePoint" />
            <mxPoint x="700" y="287" as="targetPoint" />
          </mxGeometry>
        </mxCell>
        <mxCell id="EK_gnBU_sG1Yhc5XpYXd-17" value="" style="endArrow=classic;html=1;rounded=0;strokeWidth=2;strokeColor=#6600CC;" parent="EK_gnBU_sG1Yhc5XpYXd-1" edge="1">
          <mxGeometry width="50" height="50" relative="1" as="geometry">
            <mxPoint x="550" y="431" as="sourcePoint" />
            <mxPoint x="510" y="431" as="targetPoint" />
          </mxGeometry>
        </mxCell>
        <mxCell id="EK_gnBU_sG1Yhc5XpYXd-22" value="" style="endArrow=classic;html=1;rounded=0;strokeWidth=2;strokeColor=#009900;" parent="EK_gnBU_sG1Yhc5XpYXd-1" edge="1">
          <mxGeometry width="50" height="50" relative="1" as="geometry">
            <mxPoint x="640" y="501" as="sourcePoint" />
            <mxPoint x="670" y="501" as="targetPoint" />
          </mxGeometry>
        </mxCell>
        <mxCell id="EK_gnBU_sG1Yhc5XpYXd-21" value="" style="endArrow=classic;html=1;rounded=0;strokeWidth=2;strokeColor=#6600CC;" parent="EK_gnBU_sG1Yhc5XpYXd-1" edge="1">
          <mxGeometry width="50" height="50" relative="1" as="geometry">
            <mxPoint x="610" y="531" as="sourcePoint" />
            <mxPoint x="640" y="531" as="targetPoint" />
          </mxGeometry>
        </mxCell>
        <mxCell id="EK_gnBU_sG1Yhc5XpYXd-2" value="" style="endArrow=classic;html=1;rounded=0;strokeWidth=2;strokeColor=#009900;" parent="1" edge="1">
          <mxGeometry width="50" height="50" relative="1" as="geometry">
            <mxPoint x="307" y="272" as="sourcePoint" />
            <mxPoint x="307" y="301" as="targetPoint" />
          </mxGeometry>
        </mxCell>
        <mxCell id="EK_gnBU_sG1Yhc5XpYXd-8" value="" style="endArrow=classic;html=1;rounded=0;strokeWidth=2;" parent="1" edge="1">
          <mxGeometry width="50" height="50" relative="1" as="geometry">
            <mxPoint x="297" y="432" as="sourcePoint" />
            <mxPoint x="338" y="432" as="targetPoint" />
          </mxGeometry>
        </mxCell>
        <mxCell id="EK_gnBU_sG1Yhc5XpYXd-9" value="" style="endArrow=classic;html=1;rounded=0;strokeWidth=2;" parent="1" edge="1">
          <mxGeometry width="50" height="50" relative="1" as="geometry">
            <mxPoint x="347" y="485" as="sourcePoint" />
            <mxPoint x="347" y="506" as="targetPoint" />
          </mxGeometry>
        </mxCell>
        <mxCell id="EK_gnBU_sG1Yhc5XpYXd-10" value="" style="endArrow=classic;html=1;rounded=0;strokeWidth=2;strokeColor=#990000;" parent="1" edge="1">
          <mxGeometry width="50" height="50" relative="1" as="geometry">
            <mxPoint x="125" y="370" as="sourcePoint" />
            <mxPoint x="125" y="394" as="targetPoint" />
          </mxGeometry>
        </mxCell>
        <mxCell id="EK_gnBU_sG1Yhc5XpYXd-18" value="" style="endArrow=classic;html=1;rounded=0;strokeWidth=2;strokeColor=#6600CC;" parent="1" edge="1">
          <mxGeometry width="50" height="50" relative="1" as="geometry">
            <mxPoint x="760" y="482" as="sourcePoint" />
            <mxPoint x="760" y="518" as="targetPoint" />
          </mxGeometry>
        </mxCell>
        <mxCell id="EK_gnBU_sG1Yhc5XpYXd-19" value="" style="endArrow=classic;html=1;rounded=0;strokeWidth=2;strokeColor=#6600CC;" parent="1" edge="1">
          <mxGeometry width="50" height="50" relative="1" as="geometry">
            <mxPoint x="720" y="550" as="sourcePoint" />
            <mxPoint x="690" y="550" as="targetPoint" />
          </mxGeometry>
        </mxCell>
        <mxCell id="EK_gnBU_sG1Yhc5XpYXd-20" value="" style="endArrow=classic;html=1;rounded=0;strokeWidth=2;strokeColor=#6600CC;" parent="1" edge="1">
          <mxGeometry width="50" height="50" relative="1" as="geometry">
            <mxPoint x="490" y="650" as="sourcePoint" />
            <mxPoint x="520" y="650" as="targetPoint" />
          </mxGeometry>
        </mxCell>
        <mxCell id="EK_gnBU_sG1Yhc5XpYXd-25" value="&lt;div style=&quot;line-height: 18px; white-space: pre;&quot;&gt;&lt;p style=&quot;&quot;&gt;&lt;font style=&quot;color: rgb(0, 0, 0);&quot;&gt;&lt;span style=&quot;font-weight: bold;&quot;&gt;Figure 1: Agent Communication Architecture.&lt;/span&gt; Diagram illustrating the message processing workflow, memory consolidation pathways, &lt;br/&gt;and feedback mechanisms that enable inter-agent communication within the Memetic Agents framework.&lt;/font&gt;&lt;/p&gt;&lt;/div&gt;" style="text;html=1;align=center;verticalAlign=middle;whiteSpace=wrap;rounded=0;" parent="1" vertex="1">
          <mxGeometry x="396" y="720" width="60" height="30" as="geometry" />
        </mxCell>
        <mxCell id="MyfAIEl0TEhj5KPefulC-87" value="" style="endArrow=classic;html=1;rounded=0;startArrow=baseDash;startFill=0;strokeColor=#6600CC;strokeWidth=2;" parent="1" edge="1">
          <mxGeometry width="50" height="50" relative="1" as="geometry">
            <mxPoint x="664" y="550" as="sourcePoint" />
            <mxPoint x="524" y="572" as="targetPoint" />
            <Array as="points">
              <mxPoint x="524" y="550" />
            </Array>
          </mxGeometry>
        </mxCell>
      </root>
    </mxGraphModel>
  </diagram>
</mxfile>
